<svg xmlns="http://www.w3.org/2000/svg" width="286" height="90"><g fill="none" fill-rule="evenodd"><g><circle cx="44.854" cy="44.854" r="44.854" fill="#C71D23"/><path fill="#FFF" d="M67.559 39.871H42.086a2.217 2.217 0 0 0-2.216 2.215l-.001 5.538a2.214 2.214 0 0 0 2.214 2.215h15.508c1.223 0 2.215.991 2.215 2.215V53.16a6.645 6.645 0 0 1-6.645 6.645H32.117a2.215 2.215 0 0 1-2.215-2.215V36.55a6.645 6.645 0 0 1 6.644-6.645h31.006a2.22 2.22 0 0 0 2.217-2.215l.003-5.537a2.213 2.213 0 0 0-2.213-2.215H36.548c-9.175 0-16.613 7.437-16.613 16.612v31.01c0 1.223.992 2.215 2.215 2.215h32.672c8.258 0 14.952-6.694 14.952-14.952V42.086a2.215 2.215 0 0 0-2.215-2.215Z"/></g><path fill="#FFF" fill-rule="nonzero" d="M129.68 79.412c6.742 0 12.125-1.315 16.147-3.946 4.023-2.63 6.035-6.036 6.035-10.217 0-6.744-5.035-10.116-15.103-10.116h-6.203c-2.067 0-3.55-.202-4.45-.607-.898-.405-1.348-1.079-1.348-2.023 0-.944.292-1.731.877-2.36.224-.27.517-.36.876-.27 1.438.404 2.81.607 4.113.607 4.63 0 8.394-1.113 11.293-3.339 2.899-2.225 4.349-5.519 4.349-9.88 0-1.618-.293-3.057-.877-4.316-.045-.09-.034-.191.034-.304a.331.331 0 0 1 .303-.168h1.55c1.125 0 2.068-.382 2.833-1.147.764-.764 1.146-1.708 1.146-2.832v-.944c0-1.08-.382-2.012-1.146-2.8-.765-.786-1.708-1.18-2.832-1.18h-9.911a4.18 4.18 0 0 1-1.011-.134c-1.753-.54-3.664-.81-5.731-.81-2.922 0-5.596.506-8.023 1.518-2.427 1.011-4.439 2.63-6.034 4.856-1.596 2.225-2.394 4.867-2.394 7.924 0 2.113.495 4.046 1.483 5.8.99 1.753 2.225 3.17 3.709 4.249.09.045.134.112.134.202 0 .09-.045.18-.134.27-1.259.899-2.27 1.99-3.034 3.27-.765 1.282-1.147 2.597-1.147 3.946 0 2.877 1.147 5.103 3.439 6.677.09.045.135.123.135.236a.42.42 0 0 1-.135.303c-1.798.9-3.158 2-4.08 3.305-.92 1.304-1.381 2.742-1.381 4.316 0 2.248.764 4.136 2.292 5.665 1.528 1.529 3.495 2.619 5.9 3.27 2.404.653 5.18.979 8.326.979Zm.944-36.35c-1.483 0-2.686-.53-3.607-1.586-.922-1.056-1.382-2.574-1.382-4.552 0-1.933.46-3.428 1.382-4.485.921-1.056 2.124-1.585 3.607-1.585s2.685.517 3.607 1.551c.921 1.034 1.382 2.54 1.382 4.519 0 1.978-.46 3.496-1.382 4.552-.922 1.057-2.124 1.585-3.607 1.585Zm.944 28.661c-2.562 0-4.596-.348-6.102-1.045-1.506-.697-2.258-1.742-2.258-3.136 0-1.124.516-2.18 1.55-3.17.135-.134.337-.202.607-.202h.202c1.124.225 2.832.337 5.124.337h3.708c1.978 0 3.428.203 4.35.607.92.405 1.381 1.147 1.381 2.226 0 1.259-.798 2.304-2.393 3.136-1.596.832-3.652 1.247-6.17 1.247ZM164.2 17.906c2.022 0 3.685-.585 4.989-1.754 1.303-1.169 1.955-2.675 1.955-4.518 0-1.844-.652-3.361-1.955-4.553-1.304-1.191-2.967-1.787-4.99-1.787-2.067 0-3.764.596-5.09 1.787-1.326 1.192-1.989 2.71-1.989 4.553s.663 3.35 1.99 4.518c1.325 1.17 3.022 1.754 5.09 1.754Zm2.09 44.78c1.078 0 2.011-.393 2.798-1.18.786-.787 1.18-1.72 1.18-2.799v-31.36c0-1.079-.394-2.012-1.18-2.798-.787-.787-1.72-1.18-2.798-1.18h-4.248c-1.124 0-2.067.393-2.832 1.18-.764.786-1.146 1.72-1.146 2.798v31.36c0 1.08.382 2.012 1.146 2.8.765.786 1.708 1.18 2.832 1.18h4.248Zm29.328.945c1.708 0 3.393-.158 5.056-.473 1.08-.18 1.91-.764 2.495-1.753.405-.674.607-1.371.607-2.09 0-.315-.023-.653-.068-1.012l-.27-1.08c-.224-.943-.786-1.697-1.685-2.259-.899-.562-1.91-.865-3.034-.91-3.101-.135-4.652-2.158-4.652-6.07v-14.5c0-.314.157-.472.472-.472h4.787c1.079 0 2.011-.393 2.798-1.18.787-.787 1.18-1.72 1.18-2.799v-1.686c0-1.079-.393-2.012-1.18-2.798-.787-.787-1.72-1.18-2.798-1.18h-4.787c-.315 0-.472-.158-.472-.473V17.03c0-1.124-.393-2.068-1.18-2.833-.786-.764-1.719-1.146-2.798-1.146h-2.292c-1.124 0-2.113.37-2.967 1.113a4.549 4.549 0 0 0-1.55 2.798l-.742 5.935c-.045.315-.247.495-.607.54l-1.55.135a4.17 4.17 0 0 0-2.832 1.382 4.196 4.196 0 0 0-1.146 2.934v1.146c0 1.08.393 2.012 1.18 2.8.786.786 1.719 1.18 2.798 1.18h.876c.315 0 .472.157.472.471V48.12c0 4.9 1.124 8.711 3.371 11.431 2.248 2.72 5.753 4.08 10.518 4.08Zm32.969 0c3.596 0 7.146-.832 10.652-2.496.99-.45 1.618-1.236 1.888-2.36.135-.36.202-.72.202-1.08 0-.674-.202-1.348-.606-2.022l-.203-.405c-.539-.944-1.326-1.574-2.36-1.888a5.614 5.614 0 0 0-1.483-.203c-.584 0-1.146.09-1.685.27-1.528.54-3.102.81-4.72.81-5.303 0-8.517-2.361-9.64-7.082a.372.372 0 0 1 .067-.371.415.415 0 0 1 .337-.169h18.54c1.17 0 2.203-.37 3.102-1.112.899-.742 1.37-1.675 1.416-2.8v-1.28c0-5.666-1.439-10.252-4.315-13.758-2.877-3.507-7.057-5.26-12.54-5.26a17.17 17.17 0 0 0-6.911 1.45 19.062 19.062 0 0 0-5.933 4.046c-1.73 1.73-3.124 3.911-4.18 6.541-1.057 2.63-1.585 5.497-1.585 8.6 0 6.339 1.877 11.352 5.63 15.038 3.753 3.687 8.529 5.53 14.327 5.53Zm4.584-24.954h-12.338c-.314 0-.472-.112-.472-.337 0-1.843.877-3.484 2.63-4.923 1.258-1.079 2.764-1.619 4.517-1.619 2.023 0 3.54.574 4.551 1.72 1.011 1.147 1.562 2.687 1.652 4.62v.067c0 .315-.18.472-.54.472Zm36.543 24.954c3.596 0 7.146-.832 10.652-2.496.99-.45 1.618-1.236 1.888-2.36.135-.36.202-.72.202-1.08 0-.674-.202-1.348-.606-2.022l-.203-.405c-.54-.944-1.326-1.574-2.36-1.888a5.614 5.614 0 0 0-1.483-.203c-.584 0-1.146.09-1.685.27-1.528.54-3.102.81-4.72.81-5.304 0-8.517-2.361-9.641-7.082a.372.372 0 0 1 .067-.371.415.415 0 0 1 .338-.169h18.54c1.169 0 2.203-.37 3.102-1.112.899-.742 1.37-1.675 1.416-2.8v-1.28c0-5.666-1.439-10.252-4.315-13.758-2.877-3.507-7.057-5.26-12.54-5.26a17.17 17.17 0 0 0-6.911 1.45 19.062 19.062 0 0 0-5.933 4.046c-1.73 1.73-3.124 3.911-4.18 6.541-1.057 2.63-1.585 5.497-1.585 8.6 0 6.339 1.877 11.352 5.63 15.038 3.753 3.687 8.528 5.53 14.327 5.53Zm4.584-24.954H261.96c-.314 0-.472-.112-.472-.337 0-1.843.877-3.484 2.63-4.923 1.258-1.079 2.764-1.619 4.517-1.619 2.023 0 3.54.574 4.55 1.72 1.012 1.147 1.563 2.687 1.653 4.62v.067c0 .315-.18.472-.54.472Z"/></g></svg>